<svg width="14" height="8" viewBox="0 0 14 8" fill="none" xmlns="http://www.w3.org/2000/svg">
<path d="M13.8105 6.84832C11.9486 4.90626 10.0868 2.9642 8.22491 1.02214C7.96359 0.749567 7.70228 0.476998 7.44097 0.204428C7.17965 -0.0681425 6.75502 -0.0681425 6.52637 0.204428C4.66451 2.14649 2.83532 4.05448 0.973459 5.99654C0.712145 6.26911 0.450832 6.54168 0.189519 6.81425C-0.398436 7.42753 0.51616 8.4156 1.10412 7.76825C2.96597 5.82618 4.79517 3.91819 6.65703 1.97613C6.75502 1.87392 6.88568 1.73763 6.98367 1.63542C8.68221 3.40712 10.3807 5.17883 12.1119 6.98461C12.3733 7.25718 12.6346 7.52975 12.8959 7.80232C13.4838 8.4156 14.3984 7.4616 13.8105 6.84832Z" fill="white"/>
</svg>
