<svg width="109" height="34" viewBox="0 0 109 34" fill="none" xmlns="http://www.w3.org/2000/svg">
<path d="M8.71875 9.29688C9.45312 9.29688 10.1719 9.42188 10.875 9.67188C11.5781 9.92188 12.2109 10.2891 12.7734 10.7734C13.3516 11.2578 13.8047 11.8438 14.1328 12.5312C14.4766 13.2031 14.6484 13.9766 14.6484 14.8516C14.6484 15.9141 14.375 16.8594 13.8281 17.6875C13.2969 18.5 12.5859 19.1406 11.6953 19.6094C10.8047 20.0781 9.83594 20.3125 8.78906 20.3125C8.08594 20.3125 7.45312 20.2422 6.89062 20.1016C6.32812 19.9609 5.85938 19.7969 5.48438 19.6094V25H2.22656V9.29688H8.71875ZM5.48438 12.3438V16.9844C5.82812 17.125 6.24219 17.25 6.72656 17.3594C7.22656 17.4531 7.73438 17.5 8.25 17.5C9.1875 17.5 9.92969 17.2422 10.4766 16.7266C11.0391 16.1953 11.3203 15.5703 11.3203 14.8516C11.3203 14.0234 11.0078 13.3984 10.3828 12.9766C9.75781 12.5547 9.02344 12.3438 8.17969 12.3438H5.48438ZM22.1016 12.8594C22.7422 12.8594 23.3906 13.0078 24.0469 13.3047C24.7031 13.6016 25.25 14 25.6875 14.5V13.1641H28.6641V25H25.6875V23.0078C25.3438 23.6484 24.8438 24.2031 24.1875 24.6719C23.5312 25.125 22.7656 25.3516 21.8906 25.3516C20.9375 25.3516 20.0547 25.1094 19.2422 24.625C18.4453 24.1406 17.8047 23.4375 17.3203 22.5156C16.8359 21.5938 16.5938 20.4766 16.5938 19.1641C16.5938 17.8516 16.8359 16.7266 17.3203 15.7891C17.8203 14.8516 18.4844 14.1328 19.3125 13.6328C20.1562 13.1172 21.0859 12.8594 22.1016 12.8594ZM22.7109 15.7656C22.0859 15.7656 21.5469 15.9297 21.0938 16.2578C20.6562 16.5703 20.3125 16.9844 20.0625 17.5C19.8125 18.0156 19.6875 18.5703 19.6875 19.1641C19.6875 20.0547 19.9531 20.8125 20.4844 21.4375C21.0312 22.0625 21.75 22.375 22.6406 22.375C23.1719 22.375 23.6641 22.2344 24.1172 21.9531C24.5859 21.6719 24.9609 21.2812 25.2422 20.7812C25.5391 20.2656 25.6875 19.6484 25.6875 18.9297V17.2422C25.2656 16.7891 24.8047 16.4297 24.3047 16.1641C23.8203 15.8984 23.2891 15.7656 22.7109 15.7656ZM36.6094 9.71875V13.1641H39.8906V15.6484H36.6094V20.7578C36.6094 21.2891 36.7266 21.7109 36.9609 22.0234C37.2109 22.3203 37.5781 22.4688 38.0625 22.4688C38.4844 22.4688 38.8438 22.4219 39.1406 22.3281C39.4531 22.2344 39.7422 22.1016 40.0078 21.9297V24.2969C39.7109 24.5938 39.3359 24.8438 38.8828 25.0469C38.4453 25.25 37.8906 25.3516 37.2188 25.3516C36.1562 25.3516 35.2891 25.0156 34.6172 24.3438C33.9609 23.6562 33.6328 22.7188 33.6328 21.5312V15.6484H31.5V14.125C32.25 13.8594 32.9375 13.3594 33.5625 12.625C34.2031 11.8906 34.7109 10.9219 35.0859 9.71875H36.6094ZM49.6172 12.8594C50.8203 12.8594 51.8281 13.2656 52.6406 14.0781C53.4531 14.8906 53.8594 16.1094 53.8594 17.7344V25H50.8828L50.8594 18.1328C50.8594 17.3359 50.6641 16.7422 50.2734 16.3516C49.8984 15.9609 49.375 15.7656 48.7031 15.7656C48.1719 15.7656 47.6719 15.9375 47.2031 16.2812C46.75 16.625 46.3594 17.0312 46.0312 17.5V25H43.0547V8.125H46.0312V14.8516C46.3906 14.3672 46.875 13.9141 47.4844 13.4922C48.1094 13.0703 48.8203 12.8594 49.6172 12.8594ZM73.7344 13.1641L69.6328 25H67.4766L64.7109 17.3359L61.9453 25H59.7656L55.6875 13.1641H58.9219L61.1016 20.1719L63.6562 13.1641H65.7891L68.3203 20.1719L70.5 13.1641H73.7344ZM80.0156 12.8594C80.6562 12.8594 81.3047 13.0078 81.9609 13.3047C82.6172 13.6016 83.1641 14 83.6016 14.5V13.1641H86.5781V25H83.6016V23.0078C83.2578 23.6484 82.7578 24.2031 82.1016 24.6719C81.4453 25.125 80.6797 25.3516 79.8047 25.3516C78.8516 25.3516 77.9688 25.1094 77.1562 24.625C76.3594 24.1406 75.7188 23.4375 75.2344 22.5156C74.75 21.5938 74.5078 20.4766 74.5078 19.1641C74.5078 17.8516 74.75 16.7266 75.2344 15.7891C75.7344 14.8516 76.3984 14.1328 77.2266 13.6328C78.0703 13.1172 79 12.8594 80.0156 12.8594ZM80.625 15.7656C80 15.7656 79.4609 15.9297 79.0078 16.2578C78.5703 16.5703 78.2266 16.9844 77.9766 17.5C77.7266 18.0156 77.6016 18.5703 77.6016 19.1641C77.6016 20.0547 77.8672 20.8125 78.3984 21.4375C78.9453 22.0625 79.6641 22.375 80.5547 22.375C81.0859 22.375 81.5781 22.2344 82.0312 21.9531C82.5 21.6719 82.875 21.2812 83.1562 20.7812C83.4531 20.2656 83.6016 19.6484 83.6016 18.9297V17.2422C83.1797 16.7891 82.7188 16.4297 82.2188 16.1641C81.7344 15.8984 81.2031 15.7656 80.625 15.7656ZM92.1094 13.1641L95.4844 20.7109L98.7656 13.1641H102.164L93.5625 30.625H90.1875L93.75 24.1328L88.6406 13.1641H92.1094Z" fill="white"/>
<path d="M105.633 21.6719C106.148 21.6719 106.586 21.8594 106.945 22.2344C107.32 22.5938 107.508 23.0312 107.508 23.5469C107.508 24.0625 107.32 24.5078 106.945 24.8828C106.586 25.2422 106.148 25.4219 105.633 25.4219C105.117 25.4219 104.672 25.2422 104.297 24.8828C103.938 24.5078 103.758 24.0625 103.758 23.5469C103.758 23.0312 103.938 22.5938 104.297 22.2344C104.672 21.8594 105.117 21.6719 105.633 21.6719Z" fill="#3685FB"/>
</svg>
